{"asset":{"version":"2.0","generator":"babylon.js glTF exporter for 3ds max 2019 v1.3.33"},"scene":0,"scenes":[{"nodes":[0,1],"extensions":{}}],"nodes":[{"mesh":0,"translation":[30.0,0.0,10.0],"rotation":[0.0,0.0,0.0,1.0],"scale":[1.0,1.0,1.0],"name":"House002"},{"translation":[0.0,0.0,0.0],"rotation":[0.0,0.0,0.0,1.0],"scale":[1.0,1.0,1.0],"name":"Default light"}],"meshes":[{"primitives":[{"attributes":{"POSITION":1,"NORMAL":2,"TEXCOORD_0":3},"indices":0}],"name":"House002"}],"accessors":[{"bufferView":0,"componentType":5123,"count":435,"type":"SCALAR","name":"accessorIndices"},{"bufferView":1,"componentType":5126,"count":435,"max":[10.0,20.0,20.0],"min":[-60.0,-10.0,-40.0],"type":"VEC3","name":"accessorPositions"},{"bufferView":1,"byteOffset":5220,"componentType":5126,"count":435,"type":"VEC3","name":"accessorNormals"},{"bufferView":2,"componentType":5126,"count":435,"type":"VEC2","name":"accessorUVs"}],"bufferViews":[{"buffer":0,"byteLength":872,"name":"bufferViewScalar"},{"buffer":0,"byteOffset":872,"byteLength":10440,"byteStride":12,"name":"bufferViewFloatVec3"},{"buffer":0,"byteOffset":11312,"byteLength":3480,"byteStride":8,"name":"bufferViewFloatVec2"}],"buffers":[{"uri":"model.bin","byteLength":14792}]}